<?xml version="1.0" encoding="UTF-8"?>
<svg id="Layer_1" data-name="Layer 1" xmlns="http://www.w3.org/2000/svg" viewBox="0 0 512 512">
  <defs>
    <style>
      .cls-1 {
        fill: #fff;
      }

      .cls-2 {
        fill: #2f80ed;
      }
    </style>
  </defs>
  <ellipse class="cls-1" cx="249.5" cy="250.5" rx="193.5" ry="203.5"/>
  <path class="cls-2" d="m239.8,1.1c-61.4,3.5-120.2,30.2-164.3,74.3S5.1,177,1.1,240.3c-5.2,83.1,30.5,163.5,95.9,215.7,40.6,32.4,92,52,143.7,54.9,49.9,2.7,97.1-7.9,138.8-31.2,86.8-48.5,137.6-141,131.4-239.4-5.5-87.9-54.1-164.7-131.7-208.2-30.3-17-69.2-28.6-101.7-30.6-20.4-1.2-24.3-1.2-37.7-.4Zm166.9,149.1c9.8,5.8,9.3,2.1,9.3,64.6,0,44.8-.2,54.8-1.4,57-1.6,3.1-6.1,7.4-9.3,9.1-5.2,2.7-14.8-.1-18.6-5.3-2.2-3-2.2-3.8-2.7-39l-.5-35.8-49.4,52.1c-52.8,55.6-52.3,55.1-62,55.1-4.5,0-7.2-1.4-38.7-20.1-18.7-11-34.2-20.1-34.5-20.2s-17.8,20.5-38.9,45.8c-28.2,33.9-39.2,46.5-41.9,47.7-8.8,4.2-17.9.6-22.2-8.7-1.9-4.1-2.4-9.9-1.2-13.1,1.3-3.5,90.4-109.5,93.6-111.4,3.6-2.2,11.5-2.7,15-.9,1.2.6,17,10.4,35,21.7,18.1,11.2,33.5,20.5,34.2,20.6.7,0,19.5-19.5,41.7-43.4l40.4-43.5-29-.5c-30.8-.5-30.9-.6-35.8-5.7-5-5.3-5.6-17.5-1-22.7,4-4.4,5.7-4.6,52.4-4.6,36.8,0,45-.3,48.3-1.5,5.5-2.1,10.6-1.3,17.2,2.7Z"/>
</svg>